<svg width="375" height="812" viewBox="0 0 375 812" fill="none" xmlns="http://www.w3.org/2000/svg">
<g clip-path="url(#clip0_326_2)">
<rect width="375" height="812" rx="30" fill="#F0F5FC"/>
<g filter="url(#filter0_d_326_2)">
<rect y="198" width="375" height="663" rx="40" fill="#6A5ACD"/>
</g>
<ellipse cx="64.9791" cy="792.72" rx="239.243" ry="280.411" transform="rotate(-84.7895 64.9791 792.72)" fill="#5E49DA"/>
<g filter="url(#filter1_d_326_2)">
<rect x="95" y="622" width="190" height="61" rx="30" fill="white"/>
</g>
<path d="M137.209 642.83H140.989L148.036 662H144.202L142.42 657.221H135.724L133.969 662H130.135L137.209 642.83ZM141.745 654.602L139.099 646.691L136.345 654.602H141.745ZM148.239 652.28C148.239 651.11 148.446 649.958 148.86 648.824C149.292 647.69 149.913 646.664 150.723 645.746C151.533 644.828 152.523 644.099 153.693 643.559C154.863 643.001 156.195 642.722 157.689 642.722C159.435 642.722 160.956 643.109 162.252 643.883C163.548 644.657 164.511 645.665 165.141 646.907L162.279 648.878C161.955 648.158 161.532 647.591 161.01 647.177C160.488 646.763 159.921 646.466 159.309 646.286C158.715 646.106 158.139 646.016 157.581 646.016C156.645 646.016 155.826 646.205 155.124 646.583C154.44 646.961 153.864 647.456 153.396 648.068C152.928 648.68 152.577 649.364 152.343 650.12C152.127 650.876 152.019 651.632 152.019 652.388C152.019 653.522 152.253 654.584 152.721 655.574C153.189 656.546 153.846 657.338 154.692 657.95C155.538 658.562 156.519 658.868 157.635 658.868C158.211 658.868 158.805 658.769 159.417 658.571C160.047 658.373 160.623 658.058 161.145 657.626C161.667 657.194 162.072 656.636 162.36 655.952L165.411 657.707C165.015 658.661 164.394 659.471 163.548 660.137C162.702 660.785 161.748 661.289 160.686 661.649C159.624 661.991 158.571 662.162 157.527 662.162C156.159 662.162 154.908 661.883 153.774 661.325C152.658 660.749 151.686 659.993 150.858 659.057C150.03 658.103 149.382 657.041 148.914 655.871C148.464 654.683 148.239 653.486 148.239 652.28ZM181.221 658.733V662H167.91V642.83H180.978V646.097H171.636V650.714H179.709V653.738H171.636V658.733H181.221ZM195.547 647.852C195.385 647.672 195.043 647.438 194.521 647.15C193.999 646.844 193.369 646.574 192.631 646.34C191.911 646.088 191.164 645.962 190.39 645.962C188.356 645.962 187.339 646.682 187.339 648.122C187.339 648.644 187.501 649.058 187.825 649.364C188.149 649.67 188.635 649.931 189.283 650.147C189.931 650.363 190.741 650.597 191.713 650.849C192.973 651.173 194.062 651.551 194.98 651.983C195.916 652.415 196.627 652.991 197.113 653.711C197.617 654.413 197.869 655.349 197.869 656.519C197.869 657.887 197.536 658.994 196.87 659.84C196.222 660.668 195.358 661.271 194.278 661.649C193.198 662.027 192.028 662.216 190.768 662.216C189.328 662.216 187.897 662 186.475 661.568C185.071 661.118 183.82 660.506 182.722 659.732L184.369 656.519C184.531 656.681 184.819 656.897 185.233 657.167C185.647 657.419 186.151 657.68 186.745 657.95C187.339 658.202 187.987 658.418 188.689 658.598C189.391 658.778 190.102 658.868 190.822 658.868C192.874 658.868 193.9 658.211 193.9 656.897C193.9 656.339 193.693 655.889 193.279 655.547C192.865 655.205 192.28 654.917 191.524 654.683C190.786 654.449 189.922 654.188 188.932 653.9C187.708 653.558 186.691 653.18 185.881 652.766C185.089 652.334 184.495 651.803 184.099 651.173C183.703 650.525 183.505 649.706 183.505 648.716C183.505 647.402 183.811 646.304 184.423 645.422C185.053 644.522 185.899 643.847 186.961 643.397C188.023 642.929 189.202 642.695 190.498 642.695C191.83 642.695 193.072 642.911 194.224 643.343C195.376 643.775 196.366 644.27 197.194 644.828L195.547 647.852ZM212.106 647.852C211.944 647.672 211.602 647.438 211.08 647.15C210.558 646.844 209.928 646.574 209.19 646.34C208.47 646.088 207.723 645.962 206.949 645.962C204.915 645.962 203.898 646.682 203.898 648.122C203.898 648.644 204.06 649.058 204.384 649.364C204.708 649.67 205.194 649.931 205.842 650.147C206.49 650.363 207.3 650.597 208.272 650.849C209.532 651.173 210.621 651.551 211.539 651.983C212.475 652.415 213.186 652.991 213.672 653.711C214.176 654.413 214.428 655.349 214.428 656.519C214.428 657.887 214.095 658.994 213.429 659.84C212.781 660.668 211.917 661.271 210.837 661.649C209.757 662.027 208.587 662.216 207.327 662.216C205.887 662.216 204.456 662 203.034 661.568C201.63 661.118 200.379 660.506 199.281 659.732L200.928 656.519C201.09 656.681 201.378 656.897 201.792 657.167C202.206 657.419 202.71 657.68 203.304 657.95C203.898 658.202 204.546 658.418 205.248 658.598C205.95 658.778 206.661 658.868 207.381 658.868C209.433 658.868 210.459 658.211 210.459 656.897C210.459 656.339 210.252 655.889 209.838 655.547C209.424 655.205 208.839 654.917 208.083 654.683C207.345 654.449 206.481 654.188 205.491 653.9C204.267 653.558 203.25 653.18 202.44 652.766C201.648 652.334 201.054 651.803 200.658 651.173C200.262 650.525 200.064 649.706 200.064 648.716C200.064 647.402 200.37 646.304 200.982 645.422C201.612 644.522 202.458 643.847 203.52 643.397C204.582 642.929 205.761 642.695 207.057 642.695C208.389 642.695 209.631 642.911 210.783 643.343C211.935 643.775 212.925 644.27 213.753 644.828L212.106 647.852ZM222.032 642.83H225.812L232.859 662H229.025L227.243 657.221H220.547L218.792 662H214.958L222.032 642.83ZM226.568 654.602L223.922 646.691L221.168 654.602H226.568ZM234.962 662V642.83H243.44C244.322 642.83 245.132 643.01 245.87 643.37C246.626 643.73 247.274 644.216 247.814 644.828C248.372 645.44 248.795 646.124 249.083 646.88C249.389 647.636 249.542 648.41 249.542 649.202C249.542 650.426 249.227 651.551 248.597 652.577C247.985 653.603 247.148 654.341 246.086 654.791L250.46 662H246.356L242.414 655.574H238.688V662H234.962ZM238.688 652.307H243.359C244.061 652.307 244.637 652.01 245.087 651.416C245.555 650.804 245.789 650.066 245.789 649.202C245.789 648.608 245.663 648.077 245.411 647.609C245.159 647.141 244.835 646.772 244.439 646.502C244.061 646.232 243.647 646.097 243.197 646.097H238.688V652.307Z" fill="#6A5ACD"/>
<ellipse cx="345.5" cy="54.5" rx="218.5" ry="104.5" fill="#E7EDF7"/>
<g filter="url(#filter2_d_326_2)">
<path d="M186.311 81.0002C134.147 81.0947 91.9057 123.494 92.0002 175.689C92.1104 227.869 134.509 270.094 186.705 270C238.884 269.89 281.11 227.506 281 175.327C280.921 123.131 238.522 80.89 186.311 81.0002Z" fill="white"/>
<path d="M232.065 175.421C232.112 200.574 211.747 221.018 186.595 221.065C161.426 221.112 140.983 200.747 140.935 175.595C140.888 150.426 161.253 129.983 186.406 129.951C211.574 129.888 232.033 150.253 232.065 175.421Z" fill="#6A5ACD"/>
<path d="M205.904 180.839C204.046 178.146 201.51 176.035 198.328 174.492C201.132 173.011 203.321 171.043 204.912 168.586C206.503 166.113 207.306 163.294 207.306 160.097C207.306 154.442 205.432 149.969 201.683 146.678C197.935 143.386 192.879 141.732 186.5 141.732C180.09 141.732 175.018 143.402 171.301 146.725C167.569 150.048 165.71 154.505 165.71 160.097C165.71 163.278 166.498 166.113 168.073 168.586C169.648 171.058 171.837 173.027 174.64 174.492C171.475 176.004 168.97 178.099 167.112 180.808C165.253 183.517 164.308 186.682 164.308 190.321C164.308 196.132 166.309 200.731 170.309 204.133C174.31 207.535 179.728 209.236 186.547 209.236C193.383 209.236 198.769 207.551 202.754 204.165C206.723 200.779 208.708 196.18 208.708 190.336C208.692 186.714 207.763 183.532 205.904 180.839ZM180.814 154.521C182.169 153.025 184.059 152.269 186.5 152.269C188.973 152.269 190.879 153.041 192.233 154.6C193.588 156.143 194.265 158.207 194.265 160.758C194.265 163.373 193.603 165.483 192.265 167.074C190.926 168.664 189.02 169.468 186.563 169.468C184.09 169.468 182.185 168.664 180.83 167.074C179.476 165.483 178.798 163.373 178.798 160.758C178.783 158.096 179.46 156.017 180.814 154.521ZM193.194 196.258C191.587 197.912 189.367 198.747 186.532 198.747C183.649 198.747 181.381 197.896 179.759 196.18C178.137 194.463 177.318 192.211 177.318 189.407C177.318 186.525 178.153 184.225 179.806 182.524C181.46 180.823 183.665 179.973 186.437 179.973C189.241 179.973 191.461 180.823 193.115 182.54C194.769 184.257 195.604 186.541 195.604 189.391C195.619 192.321 194.816 194.605 193.194 196.258Z" fill="url(#paint0_radial_326_2)"/>
<path d="M186.516 85.7251C235.939 85.7251 276.212 125.919 276.275 175.327C276.369 224.813 236.191 265.165 186.689 265.275H186.531C137.108 265.275 96.8196 225.081 96.7251 175.673C96.6779 151.686 105.986 129.132 122.902 112.138C139.833 95.1436 162.355 85.7724 186.327 85.7251H186.516ZM186.516 81.0001C186.453 81.0001 186.39 81.0001 186.311 81.0001C134.147 81.0946 91.9057 123.494 92.0002 175.689C92.1104 227.806 134.415 270 186.531 270C186.594 270 186.642 270 186.705 270C238.884 269.889 281.11 227.506 281 175.327C280.921 123.194 238.617 81.0001 186.516 81.0001Z" fill="#6A5ACD"/>
<path d="M155.61 327.595C155.61 328.995 155.248 330.173 154.525 331.13C153.802 332.063 152.822 332.775 151.585 333.265C150.372 333.755 149.042 334 147.595 334H135.59V309.15H148.89C150.057 309.15 151.06 309.465 151.9 310.095C152.74 310.702 153.393 311.495 153.86 312.475C154.327 313.455 154.56 314.458 154.56 315.485C154.56 316.698 154.257 317.842 153.65 318.915C153.043 319.965 152.157 320.747 150.99 321.26C152.413 321.68 153.533 322.438 154.35 323.535C155.19 324.632 155.61 325.985 155.61 327.595ZM140.42 313.28V319.545H146.86C147.653 319.545 148.342 319.265 148.925 318.705C149.508 318.145 149.8 317.375 149.8 316.395C149.8 315.462 149.532 314.715 148.995 314.155C148.482 313.572 147.84 313.28 147.07 313.28H140.42ZM150.745 326.685C150.745 325.775 150.465 324.993 149.905 324.34C149.345 323.687 148.657 323.36 147.84 323.36H140.42V329.905H147.595C148.482 329.905 149.228 329.59 149.835 328.96C150.442 328.33 150.745 327.572 150.745 326.685ZM159.379 334V309.15H164.209V334H159.379ZM174.224 318.04V334H169.394V309.15H173.244L186.089 325.53V309.185H190.919V334H186.894L174.224 318.04ZM206.413 334.175C204.78 334.175 203.251 333.848 201.828 333.195C200.405 332.542 199.145 331.643 198.048 330.5C196.975 329.333 196.135 327.98 195.528 326.44C194.921 324.9 194.618 323.232 194.618 321.435C194.618 319.732 194.921 318.133 195.528 316.64C196.135 315.123 196.986 313.793 198.083 312.65C199.18 311.507 200.463 310.608 201.933 309.955C203.403 309.302 205.001 308.975 206.728 308.975C209.038 308.975 211.033 309.477 212.713 310.48C214.393 311.46 215.653 312.767 216.493 314.4L212.888 317.06C212.258 315.847 211.371 314.913 210.228 314.26C209.108 313.583 207.883 313.245 206.553 313.245C205.153 313.245 203.916 313.63 202.843 314.4C201.793 315.17 200.965 316.185 200.358 317.445C199.775 318.705 199.483 320.082 199.483 321.575C199.483 323.138 199.798 324.55 200.428 325.81C201.058 327.07 201.921 328.073 203.018 328.82C204.138 329.543 205.41 329.905 206.833 329.905C209.236 329.905 211.406 328.773 213.343 326.51V324.76H208.338V321.225H217.333V334H213.343V331.2C211.336 333.183 209.026 334.175 206.413 334.175ZM232.054 334.175C230.234 334.175 228.578 333.825 227.084 333.125C225.614 332.425 224.343 331.48 223.269 330.29C222.219 329.077 221.403 327.723 220.819 326.23C220.236 324.713 219.944 323.162 219.944 321.575C219.944 319.918 220.248 318.343 220.854 316.85C221.461 315.333 222.313 313.992 223.409 312.825C224.506 311.635 225.789 310.702 227.259 310.025C228.753 309.325 230.386 308.975 232.159 308.975C233.956 308.975 235.589 309.337 237.059 310.06C238.553 310.783 239.824 311.752 240.874 312.965C241.948 314.178 242.764 315.543 243.324 317.06C243.908 318.553 244.199 320.082 244.199 321.645C244.199 323.278 243.896 324.853 243.289 326.37C242.683 327.863 241.831 329.205 240.734 330.395C239.661 331.562 238.378 332.483 236.884 333.16C235.414 333.837 233.804 334.175 232.054 334.175ZM224.844 321.575C224.844 323.022 225.124 324.375 225.684 325.635C226.268 326.895 227.096 327.922 228.169 328.715C229.266 329.508 230.573 329.905 232.089 329.905C233.653 329.905 234.971 329.497 236.044 328.68C237.118 327.863 237.934 326.813 238.494 325.53C239.054 324.247 239.334 322.928 239.334 321.575C239.334 320.128 239.043 318.775 238.459 317.515C237.876 316.255 237.036 315.24 235.939 314.47C234.866 313.677 233.583 313.28 232.089 313.28C230.526 313.28 229.208 313.688 228.134 314.505C227.061 315.322 226.244 316.372 225.684 317.655C225.124 318.915 224.844 320.222 224.844 321.575Z" fill="white"/>
<path d="M116.085 290.4C116.085 288.883 116.353 287.39 116.89 285.92C117.45 284.45 118.255 283.12 119.305 281.93C120.355 280.74 121.638 279.795 123.155 279.095C124.672 278.372 126.398 278.01 128.335 278.01C130.598 278.01 132.57 278.512 134.25 279.515C135.93 280.518 137.178 281.825 137.995 283.435L134.285 285.99C133.865 285.057 133.317 284.322 132.64 283.785C131.963 283.248 131.228 282.863 130.435 282.63C129.665 282.397 128.918 282.28 128.195 282.28C126.982 282.28 125.92 282.525 125.01 283.015C124.123 283.505 123.377 284.147 122.77 284.94C122.163 285.733 121.708 286.62 121.405 287.6C121.125 288.58 120.985 289.56 120.985 290.54C120.985 292.01 121.288 293.387 121.895 294.67C122.502 295.93 123.353 296.957 124.45 297.75C125.547 298.543 126.818 298.94 128.265 298.94C129.012 298.94 129.782 298.812 130.575 298.555C131.392 298.298 132.138 297.89 132.815 297.33C133.492 296.77 134.017 296.047 134.39 295.16L138.345 297.435C137.832 298.672 137.027 299.722 135.93 300.585C134.833 301.425 133.597 302.078 132.22 302.545C130.843 302.988 129.478 303.21 128.125 303.21C126.352 303.21 124.73 302.848 123.26 302.125C121.813 301.378 120.553 300.398 119.48 299.185C118.407 297.948 117.567 296.572 116.96 295.055C116.377 293.515 116.085 291.963 116.085 290.4ZM151.882 303.175C150.062 303.175 148.405 302.825 146.912 302.125C145.442 301.425 144.17 300.48 143.097 299.29C142.047 298.077 141.23 296.723 140.647 295.23C140.063 293.713 139.772 292.162 139.772 290.575C139.772 288.918 140.075 287.343 140.682 285.85C141.288 284.333 142.14 282.992 143.237 281.825C144.333 280.635 145.617 279.702 147.087 279.025C148.58 278.325 150.213 277.975 151.987 277.975C153.783 277.975 155.417 278.337 156.887 279.06C158.38 279.783 159.652 280.752 160.702 281.965C161.775 283.178 162.592 284.543 163.152 286.06C163.735 287.553 164.027 289.082 164.027 290.645C164.027 292.278 163.723 293.853 163.117 295.37C162.51 296.863 161.658 298.205 160.562 299.395C159.488 300.562 158.205 301.483 156.712 302.16C155.242 302.837 153.632 303.175 151.882 303.175ZM144.672 290.575C144.672 292.022 144.952 293.375 145.512 294.635C146.095 295.895 146.923 296.922 147.997 297.715C149.093 298.508 150.4 298.905 151.917 298.905C153.48 298.905 154.798 298.497 155.872 297.68C156.945 296.863 157.762 295.813 158.322 294.53C158.882 293.247 159.162 291.928 159.162 290.575C159.162 289.128 158.87 287.775 158.287 286.515C157.703 285.255 156.863 284.24 155.767 283.47C154.693 282.677 153.41 282.28 151.917 282.28C150.353 282.28 149.035 282.688 147.962 283.505C146.888 284.322 146.072 285.372 145.512 286.655C144.952 287.915 144.672 289.222 144.672 290.575ZM167.732 303V278.15H172.562V298.765H185.232V303H167.732ZM188.171 303V278.15H193.001V298.765H205.671V303H188.171ZM215.366 278.15H220.266L229.401 303H224.431L222.121 296.805H213.441L211.166 303H206.196L215.366 278.15ZM221.246 293.41L217.816 283.155L214.246 293.41H221.246ZM252.146 296.595C252.146 297.995 251.784 299.173 251.061 300.13C250.338 301.063 249.358 301.775 248.121 302.265C246.908 302.755 245.578 303 244.131 303H232.126V278.15H245.426C246.593 278.15 247.596 278.465 248.436 279.095C249.276 279.702 249.929 280.495 250.396 281.475C250.863 282.455 251.096 283.458 251.096 284.485C251.096 285.698 250.793 286.842 250.186 287.915C249.579 288.965 248.693 289.747 247.526 290.26C248.949 290.68 250.069 291.438 250.886 292.535C251.726 293.632 252.146 294.985 252.146 296.595ZM236.956 282.28V288.545H243.396C244.189 288.545 244.878 288.265 245.461 287.705C246.044 287.145 246.336 286.375 246.336 285.395C246.336 284.462 246.068 283.715 245.531 283.155C245.018 282.572 244.376 282.28 243.606 282.28H236.956ZM247.281 295.685C247.281 294.775 247.001 293.993 246.441 293.34C245.881 292.687 245.193 292.36 244.376 292.36H236.956V298.905H244.131C245.018 298.905 245.764 298.59 246.371 297.96C246.978 297.33 247.281 296.572 247.281 295.685Z" fill="white"/>
</g>
<path d="M126.465 710.6C126.465 709.95 126.58 709.31 126.81 708.68C127.05 708.05 127.395 707.48 127.845 706.97C128.295 706.46 128.845 706.055 129.495 705.755C130.145 705.445 130.885 705.29 131.715 705.29C132.685 705.29 133.53 705.505 134.25 705.935C134.97 706.365 135.505 706.925 135.855 707.615L134.265 708.71C134.085 708.31 133.85 707.995 133.56 707.765C133.27 707.535 132.955 707.37 132.615 707.27C132.285 707.17 131.965 707.12 131.655 707.12C131.135 707.12 130.68 707.225 130.29 707.435C129.91 707.645 129.59 707.92 129.33 708.26C129.07 708.6 128.875 708.98 128.745 709.4C128.625 709.82 128.565 710.24 128.565 710.66C128.565 711.29 128.695 711.88 128.955 712.43C129.215 712.97 129.58 713.41 130.05 713.75C130.52 714.09 131.065 714.26 131.685 714.26C132.005 714.26 132.335 714.205 132.675 714.095C133.025 713.985 133.345 713.81 133.635 713.57C133.925 713.33 134.15 713.02 134.31 712.64L136.005 713.615C135.785 714.145 135.44 714.595 134.97 714.965C134.5 715.325 133.97 715.605 133.38 715.805C132.79 715.995 132.205 716.09 131.625 716.09C130.865 716.09 130.17 715.935 129.54 715.625C128.92 715.305 128.38 714.885 127.92 714.365C127.46 713.835 127.1 713.245 126.84 712.595C126.59 711.935 126.465 711.27 126.465 710.6ZM141.878 709.88C141.268 709.88 140.723 710 140.243 710.24C139.763 710.47 139.418 710.805 139.208 711.245V716H137.198V708.14H139.043V709.82C139.313 709.28 139.663 708.855 140.093 708.545C140.533 708.235 140.993 708.065 141.473 708.035C141.683 708.035 141.818 708.04 141.878 708.05V709.88ZM142.999 707.045V705.05H145.009V707.045H142.999ZM142.999 716V708.14H145.009V716H142.999ZM146.282 713.675C146.282 713.165 146.422 712.72 146.702 712.34C146.992 711.95 147.392 711.65 147.902 711.44C148.412 711.23 148.997 711.125 149.657 711.125C149.987 711.125 150.322 711.155 150.662 711.215C151.002 711.265 151.297 711.34 151.547 711.44V711.02C151.547 710.52 151.397 710.135 151.097 709.865C150.807 709.595 150.372 709.46 149.792 709.46C149.362 709.46 148.952 709.535 148.562 709.685C148.172 709.835 147.762 710.055 147.332 710.345L146.687 709.025C147.207 708.685 147.737 708.43 148.277 708.26C148.827 708.09 149.402 708.005 150.002 708.005C151.122 708.005 151.992 708.285 152.612 708.845C153.242 709.405 153.557 710.205 153.557 711.245V713.75C153.557 713.97 153.592 714.125 153.662 714.215C153.732 714.295 153.857 714.345 154.037 714.365V716C153.857 716.04 153.692 716.065 153.542 716.075C153.402 716.095 153.282 716.105 153.182 716.105C152.782 716.105 152.477 716.015 152.267 715.835C152.057 715.655 151.932 715.435 151.892 715.175L151.847 714.77C151.497 715.22 151.067 715.565 150.557 715.805C150.057 716.035 149.542 716.15 149.012 716.15C148.482 716.15 148.012 716.045 147.602 715.835C147.192 715.615 146.867 715.32 146.627 714.95C146.397 714.57 146.282 714.145 146.282 713.675ZM151.172 714.08C151.422 713.84 151.547 713.61 151.547 713.39V712.595C151.027 712.385 150.502 712.28 149.972 712.28C149.442 712.28 149.012 712.395 148.682 712.625C148.352 712.845 148.187 713.14 148.187 713.51C148.187 713.81 148.307 714.08 148.547 714.32C148.787 714.56 149.132 714.68 149.582 714.68C149.882 714.68 150.172 714.625 150.452 714.515C150.742 714.405 150.982 714.26 151.172 714.08ZM160.116 709.88C159.506 709.88 158.961 710 158.481 710.24C158.001 710.47 157.656 710.805 157.446 711.245V716H155.436V708.14H157.281V709.82C157.551 709.28 157.901 708.855 158.331 708.545C158.771 708.235 159.231 708.065 159.711 708.035C159.921 708.035 160.056 708.04 160.116 708.05V709.88ZM164.428 713.06V708.14H166.438V712.625C166.438 713.835 166.873 714.44 167.743 714.44C168.133 714.44 168.508 714.325 168.868 714.095C169.238 713.855 169.538 713.495 169.768 713.015V708.14H171.778V713.75C171.778 713.97 171.813 714.125 171.883 714.215C171.953 714.295 172.078 714.345 172.258 714.365V716C172.058 716.04 171.888 716.065 171.748 716.075C171.618 716.085 171.498 716.09 171.388 716.09C171.028 716.09 170.733 716.01 170.503 715.85C170.283 715.68 170.153 715.45 170.113 715.16L170.068 714.53C169.718 715.07 169.268 715.475 168.718 715.745C168.168 716.015 167.563 716.15 166.903 716.15C166.093 716.15 165.478 715.89 165.058 715.37C164.638 714.84 164.428 714.07 164.428 713.06ZM185.985 716H183.975V711.59C183.975 710.97 183.865 710.515 183.645 710.225C183.435 709.925 183.14 709.775 182.76 709.775C182.36 709.775 181.985 709.93 181.635 710.24C181.285 710.54 181.035 710.935 180.885 711.425V716H178.875V711.59C178.875 710.96 178.765 710.5 178.545 710.21C178.335 709.92 178.04 709.775 177.66 709.775C177.27 709.775 176.895 709.925 176.535 710.225C176.185 710.525 175.935 710.92 175.785 711.41V716H173.775V708.14H175.59V709.595C175.88 709.085 176.275 708.695 176.775 708.425C177.285 708.145 177.865 708.005 178.515 708.005C179.165 708.005 179.67 708.165 180.03 708.485C180.4 708.805 180.635 709.2 180.735 709.67C181.045 709.13 181.45 708.72 181.95 708.44C182.45 708.15 183.01 708.005 183.63 708.005C184.12 708.005 184.515 708.095 184.815 708.275C185.125 708.445 185.365 708.68 185.535 708.98C185.705 709.27 185.82 709.6 185.88 709.97C185.95 710.34 185.985 710.715 185.985 711.095V716ZM187.195 713.675C187.195 713.165 187.335 712.72 187.615 712.34C187.905 711.95 188.305 711.65 188.815 711.44C189.325 711.23 189.91 711.125 190.57 711.125C190.9 711.125 191.235 711.155 191.575 711.215C191.915 711.265 192.21 711.34 192.46 711.44V711.02C192.46 710.52 192.31 710.135 192.01 709.865C191.72 709.595 191.285 709.46 190.705 709.46C190.275 709.46 189.865 709.535 189.475 709.685C189.085 709.835 188.675 710.055 188.245 710.345L187.6 709.025C188.12 708.685 188.65 708.43 189.19 708.26C189.74 708.09 190.315 708.005 190.915 708.005C192.035 708.005 192.905 708.285 193.525 708.845C194.155 709.405 194.47 710.205 194.47 711.245V713.75C194.47 713.97 194.505 714.125 194.575 714.215C194.645 714.295 194.77 714.345 194.95 714.365V716C194.77 716.04 194.605 716.065 194.455 716.075C194.315 716.095 194.195 716.105 194.095 716.105C193.695 716.105 193.39 716.015 193.18 715.835C192.97 715.655 192.845 715.435 192.805 715.175L192.76 714.77C192.41 715.22 191.98 715.565 191.47 715.805C190.97 716.035 190.455 716.15 189.925 716.15C189.395 716.15 188.925 716.045 188.515 715.835C188.105 715.615 187.78 715.32 187.54 714.95C187.31 714.57 187.195 714.145 187.195 713.675ZM192.085 714.08C192.335 713.84 192.46 713.61 192.46 713.39V712.595C191.94 712.385 191.415 712.28 190.885 712.28C190.355 712.28 189.925 712.395 189.595 712.625C189.265 712.845 189.1 713.14 189.1 713.51C189.1 713.81 189.22 714.08 189.46 714.32C189.7 714.56 190.045 714.68 190.495 714.68C190.795 714.68 191.085 714.625 191.365 714.515C191.655 714.405 191.895 714.26 192.085 714.08ZM203.612 716.15C202.762 716.15 202.027 715.96 201.407 715.58C200.787 715.2 200.307 714.7 199.967 714.08C199.627 713.46 199.457 712.79 199.457 712.07C199.457 711.34 199.622 710.665 199.952 710.045C200.292 709.425 200.772 708.93 201.392 708.56C202.012 708.19 202.747 708.005 203.597 708.005C204.457 708.005 205.187 708.19 205.787 708.56C206.397 708.93 206.852 709.415 207.152 710.015L205.187 710.615C204.837 710.015 204.302 709.715 203.582 709.715C203.192 709.715 202.842 709.815 202.532 710.015C202.222 710.205 201.977 710.48 201.797 710.84C201.617 711.19 201.527 711.6 201.527 712.07C201.527 712.53 201.617 712.94 201.797 713.3C201.987 713.65 202.237 713.93 202.547 714.14C202.857 714.34 203.202 714.44 203.582 714.44C203.942 714.44 204.272 714.355 204.572 714.185C204.882 714.005 205.097 713.78 205.217 713.51L207.182 714.11C206.912 714.7 206.462 715.19 205.832 715.58C205.212 715.96 204.472 716.15 203.612 716.15ZM211.976 716.15C211.116 716.15 210.376 715.965 209.756 715.595C209.146 715.215 208.676 714.715 208.346 714.095C208.016 713.475 207.851 712.805 207.851 712.085C207.851 711.355 208.016 710.68 208.346 710.06C208.686 709.44 209.161 708.945 209.771 708.575C210.391 708.195 211.126 708.005 211.976 708.005C212.826 708.005 213.556 708.195 214.166 708.575C214.786 708.945 215.261 709.44 215.591 710.06C215.921 710.68 216.086 711.355 216.086 712.085C216.086 712.805 215.921 713.475 215.591 714.095C215.261 714.715 214.786 715.215 214.166 715.595C213.556 715.965 212.826 716.15 211.976 716.15ZM209.921 712.085C209.921 712.545 210.011 712.955 210.191 713.315C210.371 713.665 210.616 713.94 210.926 714.14C211.236 714.34 211.586 714.44 211.976 714.44C212.356 714.44 212.701 714.34 213.011 714.14C213.321 713.93 213.566 713.65 213.746 713.3C213.936 712.94 214.031 712.53 214.031 712.07C214.031 711.62 213.936 711.22 213.746 710.87C213.566 710.51 213.321 710.23 213.011 710.03C212.701 709.82 212.356 709.715 211.976 709.715C211.586 709.715 211.236 709.82 210.926 710.03C210.616 710.23 210.371 710.51 210.191 710.87C210.011 711.22 209.921 711.625 209.921 712.085ZM224.747 716H222.737V711.59C222.737 710.96 222.627 710.5 222.407 710.21C222.187 709.92 221.882 709.775 221.492 709.775C221.222 709.775 220.947 709.845 220.667 709.985C220.397 710.125 220.152 710.32 219.932 710.57C219.712 710.81 219.552 711.09 219.452 711.41V716H217.442V708.14H219.257V709.595C219.547 709.105 219.967 708.72 220.517 708.44C221.067 708.15 221.687 708.005 222.377 708.005C222.867 708.005 223.267 708.095 223.577 708.275C223.887 708.445 224.127 708.68 224.297 708.98C224.467 709.27 224.582 709.6 224.642 709.97C224.712 710.34 224.747 710.715 224.747 711.095V716ZM231.161 715.595C230.891 715.715 230.556 715.835 230.156 715.955C229.766 716.075 229.361 716.135 228.941 716.135C228.571 716.135 228.231 716.07 227.921 715.94C227.611 715.81 227.361 715.605 227.171 715.325C226.991 715.035 226.901 714.66 226.901 714.2V709.685H225.866V708.14H226.901V705.59H228.911V708.14H230.561V709.685H228.911V713.525C228.911 713.795 228.981 713.99 229.121 714.11C229.271 714.23 229.451 714.29 229.661 714.29C229.871 714.29 230.076 714.255 230.276 714.185C230.476 714.115 230.636 714.055 230.756 714.005L231.161 715.595ZM231.668 713.675C231.668 713.165 231.808 712.72 232.088 712.34C232.378 711.95 232.778 711.65 233.288 711.44C233.798 711.23 234.383 711.125 235.043 711.125C235.373 711.125 235.708 711.155 236.048 711.215C236.388 711.265 236.683 711.34 236.933 711.44V711.02C236.933 710.52 236.783 710.135 236.483 709.865C236.193 709.595 235.758 709.46 235.178 709.46C234.748 709.46 234.338 709.535 233.948 709.685C233.558 709.835 233.148 710.055 232.718 710.345L232.073 709.025C232.593 708.685 233.123 708.43 233.663 708.26C234.213 708.09 234.788 708.005 235.388 708.005C236.508 708.005 237.378 708.285 237.998 708.845C238.628 709.405 238.943 710.205 238.943 711.245V713.75C238.943 713.97 238.978 714.125 239.048 714.215C239.118 714.295 239.243 714.345 239.423 714.365V716C239.243 716.04 239.078 716.065 238.928 716.075C238.788 716.095 238.668 716.105 238.568 716.105C238.168 716.105 237.863 716.015 237.653 715.835C237.443 715.655 237.318 715.435 237.278 715.175L237.233 714.77C236.883 715.22 236.453 715.565 235.943 715.805C235.443 716.035 234.928 716.15 234.398 716.15C233.868 716.15 233.398 716.045 232.988 715.835C232.578 715.615 232.253 715.32 232.013 714.95C231.783 714.57 231.668 714.145 231.668 713.675ZM236.558 714.08C236.808 713.84 236.933 713.61 236.933 713.39V712.595C236.413 712.385 235.888 712.28 235.358 712.28C234.828 712.28 234.398 712.395 234.068 712.625C233.738 712.845 233.573 713.14 233.573 713.51C233.573 713.81 233.693 714.08 233.933 714.32C234.173 714.56 234.518 714.68 234.968 714.68C235.268 714.68 235.558 714.625 235.838 714.515C236.128 714.405 236.368 714.26 236.558 714.08Z" fill="white"/>
<rect x="35" y="541" width="306" height="50" rx="20" fill="white"/>
<path d="M90.94 563.52C90.82 563.387 90.5667 563.213 90.18 563C89.7933 562.773 89.3267 562.573 88.78 562.4C88.2467 562.213 87.6933 562.12 87.12 562.12C85.6133 562.12 84.86 562.653 84.86 563.72C84.86 564.107 84.98 564.413 85.22 564.64C85.46 564.867 85.82 565.06 86.3 565.22C86.78 565.38 87.38 565.553 88.1 565.74C89.0333 565.98 89.84 566.26 90.52 566.58C91.2133 566.9 91.74 567.327 92.1 567.86C92.4733 568.38 92.66 569.073 92.66 569.94C92.66 570.953 92.4133 571.773 91.92 572.4C91.44 573.013 90.8 573.46 90 573.74C89.2 574.02 88.3333 574.16 87.4 574.16C86.3333 574.16 85.2733 574 84.22 573.68C83.18 573.347 82.2533 572.893 81.44 572.32L82.66 569.94C82.78 570.06 82.9933 570.22 83.3 570.42C83.6067 570.607 83.98 570.8 84.42 571C84.86 571.187 85.34 571.347 85.86 571.48C86.38 571.613 86.9067 571.68 87.44 571.68C88.96 571.68 89.72 571.193 89.72 570.22C89.72 569.807 89.5667 569.473 89.26 569.22C88.9533 568.967 88.52 568.753 87.96 568.58C87.4133 568.407 86.7733 568.213 86.04 568C85.1333 567.747 84.38 567.467 83.78 567.16C83.1933 566.84 82.7533 566.447 82.46 565.98C82.1667 565.5 82.02 564.893 82.02 564.16C82.02 563.187 82.2467 562.373 82.7 561.72C83.1667 561.053 83.7933 560.553 84.58 560.22C85.3667 559.873 86.24 559.7 87.2 559.7C88.1867 559.7 89.1067 559.86 89.96 560.18C90.8133 560.5 91.5467 560.867 92.16 561.28L90.94 563.52ZM99.3456 574.2C98.2123 574.2 97.2323 573.953 96.4056 573.46C95.5923 572.967 94.959 572.313 94.5056 571.5C94.0523 570.673 93.8256 569.78 93.8256 568.82C93.8256 567.833 94.0456 566.927 94.4856 566.1C94.939 565.26 95.579 564.593 96.4056 564.1C97.2323 563.593 98.219 563.34 99.3656 563.34C100.512 563.34 101.492 563.593 102.306 564.1C103.119 564.593 103.739 565.253 104.166 566.08C104.606 566.893 104.826 567.773 104.826 568.72C104.826 569.067 104.806 569.367 104.766 569.62H96.6656C96.7323 570.433 97.0323 571.073 97.5656 571.54C98.1123 572.007 98.739 572.24 99.4456 572.24C99.979 572.24 100.479 572.113 100.946 571.86C101.426 571.593 101.752 571.247 101.926 570.82L104.226 571.46C103.839 572.26 103.219 572.92 102.366 573.44C101.512 573.947 100.506 574.2 99.3456 574.2ZM96.6056 567.92H102.086C102.006 567.133 101.706 566.5 101.186 566.02C100.679 565.527 100.059 565.28 99.3256 565.28C98.6056 565.28 97.9856 565.527 97.4656 566.02C96.959 566.5 96.6723 567.133 96.6056 567.92ZM116.198 574H113.518V568.12C113.518 567.28 113.372 566.667 113.078 566.28C112.785 565.893 112.378 565.7 111.858 565.7C111.498 565.7 111.132 565.793 110.758 565.98C110.398 566.167 110.072 566.427 109.778 566.76C109.485 567.08 109.272 567.453 109.138 567.88V574H106.458V563.52H108.878V565.46C109.265 564.807 109.825 564.293 110.558 563.92C111.292 563.533 112.118 563.34 113.038 563.34C113.692 563.34 114.225 563.46 114.638 563.7C115.052 563.927 115.372 564.24 115.598 564.64C115.825 565.027 115.978 565.467 116.058 565.96C116.152 566.453 116.198 566.953 116.198 567.46V574ZM128.269 574H125.589V568.12C125.589 567.307 125.429 566.7 125.109 566.3C124.802 565.9 124.375 565.7 123.829 565.7C123.495 565.7 123.149 565.793 122.789 565.98C122.442 566.167 122.122 566.427 121.829 566.76C121.549 567.08 121.342 567.453 121.209 567.88V574H118.529V559.4H121.209V565.46C121.595 564.793 122.122 564.273 122.789 563.9C123.455 563.527 124.182 563.34 124.969 563.34C125.862 563.34 126.549 563.54 127.029 563.94C127.509 564.34 127.835 564.853 128.009 565.48C128.182 566.107 128.269 566.767 128.269 567.46V574ZM129.879 570.9C129.879 570.22 130.066 569.627 130.439 569.12C130.826 568.6 131.359 568.2 132.039 567.92C132.719 567.64 133.499 567.5 134.379 567.5C134.819 567.5 135.266 567.54 135.719 567.62C136.172 567.687 136.566 567.787 136.899 567.92V567.36C136.899 566.693 136.699 566.18 136.299 565.82C135.912 565.46 135.332 565.28 134.559 565.28C133.986 565.28 133.439 565.38 132.919 565.58C132.399 565.78 131.852 566.073 131.279 566.46L130.419 564.7C131.112 564.247 131.819 563.907 132.539 563.68C133.272 563.453 134.039 563.34 134.839 563.34C136.332 563.34 137.492 563.713 138.319 564.46C139.159 565.207 139.579 566.273 139.579 567.66V571C139.579 571.293 139.626 571.5 139.719 571.62C139.812 571.727 139.979 571.793 140.219 571.82V574C139.979 574.053 139.759 574.087 139.559 574.1C139.372 574.127 139.212 574.14 139.079 574.14C138.546 574.14 138.139 574.02 137.859 573.78C137.579 573.54 137.412 573.247 137.359 572.9L137.299 572.36C136.832 572.96 136.259 573.42 135.579 573.74C134.912 574.047 134.226 574.2 133.519 574.2C132.812 574.2 132.186 574.06 131.639 573.78C131.092 573.487 130.659 573.093 130.339 572.6C130.032 572.093 129.879 571.527 129.879 570.9ZM136.399 571.44C136.732 571.12 136.899 570.813 136.899 570.52V569.46C136.206 569.18 135.506 569.04 134.799 569.04C134.092 569.04 133.519 569.193 133.079 569.5C132.639 569.793 132.419 570.187 132.419 570.68C132.419 571.08 132.579 571.44 132.899 571.76C133.219 572.08 133.679 572.24 134.279 572.24C134.679 572.24 135.066 572.167 135.439 572.02C135.826 571.873 136.146 571.68 136.399 571.44Z" fill="#A5A2A2"/>
<path d="M65.5 578.219C65.331 578.219 65.1665 578.164 65.0312 578.063L61.9062 575.719C61.8092 575.646 61.7305 575.552 61.6762 575.443C61.622 575.335 61.5938 575.215 61.5938 575.094V567.648C60.3395 566.81 59.388 565.591 58.8798 564.171C58.3716 562.751 58.3336 561.205 58.7715 559.761C59.2094 558.318 60.0999 557.053 61.3115 556.155C62.5231 555.256 63.9915 554.771 65.5 554.771C67.0085 554.771 68.4769 555.256 69.6885 556.155C70.9001 557.053 71.7906 558.318 72.2285 559.761C72.6664 561.205 72.6284 562.751 72.1202 564.171C71.612 565.591 70.6605 566.81 69.4062 567.648V568.844C69.4068 568.947 69.3871 569.049 69.3483 569.144C69.3094 569.239 69.2521 569.325 69.1797 569.398L68.1641 570.406L69.1797 571.414C69.2529 571.487 69.311 571.573 69.3507 571.668C69.3904 571.764 69.4108 571.866 69.4108 571.969C69.4108 572.072 69.3904 572.174 69.3507 572.269C69.311 572.364 69.2529 572.451 69.1797 572.523L68.1641 573.531L69.1797 574.539C69.259 574.618 69.3203 574.714 69.3594 574.819C69.3985 574.924 69.4145 575.037 69.4062 575.148C69.3982 575.26 69.3661 575.369 69.3122 575.468C69.2582 575.566 69.1837 575.652 69.0938 575.719L65.9688 578.063C65.8335 578.164 65.669 578.219 65.5 578.219ZM63.1563 574.703L65.5 576.461L67.4375 575.008L66.5078 574.086C66.4346 574.013 66.3765 573.927 66.3368 573.832C66.2971 573.737 66.2767 573.634 66.2767 573.531C66.2767 573.428 66.2971 573.326 66.3368 573.231C66.3765 573.136 66.4346 573.049 66.5078 572.977L67.5234 571.969L66.5078 570.961C66.4346 570.888 66.3765 570.802 66.3368 570.707C66.2971 570.612 66.2767 570.509 66.2767 570.406C66.2767 570.303 66.2971 570.201 66.3368 570.106C66.3765 570.011 66.4346 569.924 66.5078 569.852L67.8438 568.523V567.219C67.8446 567.082 67.8811 566.949 67.9496 566.831C68.0181 566.713 68.1163 566.615 68.2344 566.547C69.2769 565.945 70.0918 565.016 70.5525 563.904C71.0132 562.791 71.094 561.558 70.7824 560.395C70.4708 559.233 69.7842 558.205 68.8292 557.472C67.8741 556.739 66.7039 556.342 65.5 556.342C64.2961 556.342 63.1259 556.739 62.1708 557.472C61.2158 558.205 60.5292 559.233 60.2176 560.395C59.906 561.558 59.9868 562.791 60.4475 563.904C60.9082 565.016 61.7231 565.945 62.7656 566.547C62.8837 566.615 62.9819 566.713 63.0504 566.831C63.1189 566.949 63.1554 567.082 63.1563 567.219V574.703Z" fill="#A5A2A2"/>
<path d="M65.5 561.031C65.9315 561.031 66.2812 560.681 66.2812 560.25C66.2812 559.819 65.9315 559.469 65.5 559.469C65.0685 559.469 64.7188 559.819 64.7188 560.25C64.7188 560.681 65.0685 561.031 65.5 561.031Z" fill="#A5A2A2"/>
<path d="M65.5 561.813C65.191 561.813 64.8889 561.721 64.6319 561.549C64.375 561.377 64.1747 561.133 64.0564 560.848C63.9382 560.562 63.9072 560.248 63.9675 559.945C64.0278 559.642 64.1766 559.364 64.3951 559.145C64.6137 558.927 64.8921 558.778 65.1952 558.718C65.4983 558.657 65.8124 558.688 66.0979 558.806C66.3835 558.925 66.6275 559.125 66.7992 559.382C66.9709 559.639 67.0625 559.941 67.0625 560.25C67.0625 560.664 66.8979 561.062 66.6049 561.355C66.3118 561.648 65.9144 561.813 65.5 561.813Z" fill="#A5A2A2"/>
<rect x="35" y="458" width="306" height="50" rx="20" fill="white"/>
<path d="M89.5 492.1C88.3667 492.1 87.4 491.913 86.6 491.54C85.8133 491.153 85.1733 490.627 84.68 489.96C84.2 489.293 83.8467 488.54 83.62 487.7C83.3933 486.847 83.28 485.96 83.28 485.04V477.8H86.04V485.04C86.04 485.827 86.1467 486.573 86.36 487.28C86.5733 487.987 86.9333 488.56 87.44 489C87.9467 489.44 88.6267 489.66 89.48 489.66C90.36 489.66 91.0533 489.44 91.56 489C92.0667 488.547 92.4267 487.967 92.64 487.26C92.8533 486.553 92.96 485.813 92.96 485.04V477.8H95.7V485.04C95.7 486.013 95.58 486.927 95.34 487.78C95.1133 488.633 94.7467 489.387 94.24 490.04C93.7467 490.68 93.1067 491.187 92.32 491.56C91.5333 491.92 90.5933 492.1 89.5 492.1ZM101.826 492.2C100.933 492.2 100.079 492.053 99.2661 491.76C98.4528 491.467 97.7528 491.033 97.1661 490.46L98.1261 488.72C98.7528 489.227 99.3661 489.6 99.9661 489.84C100.566 490.08 101.153 490.2 101.726 490.2C102.246 490.2 102.659 490.107 102.966 489.92C103.286 489.733 103.446 489.453 103.446 489.08C103.446 488.693 103.253 488.433 102.866 488.3C102.479 488.153 101.939 487.973 101.246 487.76C100.473 487.52 99.8261 487.273 99.3061 487.02C98.7861 486.767 98.3928 486.46 98.1261 486.1C97.8728 485.74 97.7461 485.273 97.7461 484.7C97.7461 483.673 98.1328 482.853 98.9061 482.24C99.6794 481.627 100.706 481.32 101.986 481.32C102.733 481.32 103.439 481.44 104.106 481.68C104.773 481.907 105.379 482.28 105.926 482.8L104.846 484.5C103.819 483.7 102.826 483.3 101.866 483.3C101.439 483.3 101.059 483.38 100.726 483.54C100.406 483.7 100.246 483.98 100.246 484.38C100.246 484.753 100.399 485.02 100.706 485.18C101.026 485.34 101.506 485.513 102.146 485.7C102.973 485.953 103.673 486.2 104.246 486.44C104.833 486.68 105.273 486.987 105.566 487.36C105.873 487.733 106.026 488.24 106.026 488.88C106.026 489.92 105.646 490.733 104.886 491.32C104.126 491.907 103.106 492.2 101.826 492.2ZM107.749 488.08V481.52H110.429V487.5C110.429 489.113 111.009 489.92 112.169 489.92C112.689 489.92 113.189 489.767 113.669 489.46C114.162 489.14 114.562 488.66 114.869 488.02V481.52H117.549V489C117.549 489.293 117.596 489.5 117.689 489.62C117.782 489.727 117.949 489.793 118.189 489.82V492C117.922 492.053 117.696 492.087 117.509 492.1C117.336 492.113 117.176 492.12 117.029 492.12C116.549 492.12 116.156 492.013 115.849 491.8C115.556 491.573 115.382 491.267 115.329 490.88L115.269 490.04C114.802 490.76 114.202 491.3 113.469 491.66C112.736 492.02 111.929 492.2 111.049 492.2C109.969 492.2 109.149 491.853 108.589 491.16C108.029 490.453 107.749 489.427 107.749 488.08ZM119.492 488.9C119.492 488.22 119.679 487.627 120.052 487.12C120.439 486.6 120.972 486.2 121.652 485.92C122.332 485.64 123.112 485.5 123.992 485.5C124.432 485.5 124.879 485.54 125.332 485.62C125.786 485.687 126.179 485.787 126.512 485.92V485.36C126.512 484.693 126.312 484.18 125.912 483.82C125.526 483.46 124.946 483.28 124.172 483.28C123.599 483.28 123.052 483.38 122.532 483.58C122.012 483.78 121.466 484.073 120.892 484.46L120.032 482.7C120.726 482.247 121.432 481.907 122.152 481.68C122.886 481.453 123.652 481.34 124.452 481.34C125.946 481.34 127.106 481.713 127.932 482.46C128.772 483.207 129.192 484.273 129.192 485.66V489C129.192 489.293 129.239 489.5 129.332 489.62C129.426 489.727 129.592 489.793 129.832 489.82V492C129.592 492.053 129.372 492.087 129.172 492.1C128.986 492.127 128.826 492.14 128.692 492.14C128.159 492.14 127.752 492.02 127.472 491.78C127.192 491.54 127.026 491.247 126.972 490.9L126.912 490.36C126.446 490.96 125.872 491.42 125.192 491.74C124.526 492.047 123.839 492.2 123.132 492.2C122.426 492.2 121.799 492.06 121.252 491.78C120.706 491.487 120.272 491.093 119.952 490.6C119.646 490.093 119.492 489.527 119.492 488.9ZM126.012 489.44C126.346 489.12 126.512 488.813 126.512 488.52V487.46C125.819 487.18 125.119 487.04 124.412 487.04C123.706 487.04 123.132 487.193 122.692 487.5C122.252 487.793 122.032 488.187 122.032 488.68C122.032 489.08 122.192 489.44 122.512 489.76C122.832 490.08 123.292 490.24 123.892 490.24C124.292 490.24 124.679 490.167 125.052 490.02C125.439 489.873 125.759 489.68 126.012 489.44ZM125.332 480.3L123.612 479.78L124.692 477.4H127.192L125.332 480.3ZM137.937 483.84C137.123 483.84 136.397 484 135.757 484.32C135.117 484.627 134.657 485.073 134.377 485.66V492H131.697V481.52H134.157V483.76C134.517 483.04 134.983 482.473 135.557 482.06C136.143 481.647 136.757 481.42 137.397 481.38C137.677 481.38 137.857 481.387 137.937 481.4V483.84ZM139.431 480.06V477.4H142.111V480.06H139.431ZM139.431 492V481.52H142.111V492H139.431ZM149.369 492.2C148.222 492.2 147.235 491.953 146.409 491.46C145.595 490.953 144.969 490.287 144.529 489.46C144.089 488.633 143.869 487.74 143.869 486.78C143.869 485.807 144.089 484.907 144.529 484.08C144.982 483.253 145.615 482.593 146.429 482.1C147.255 481.593 148.235 481.34 149.369 481.34C150.502 481.34 151.475 481.593 152.289 482.1C153.115 482.593 153.749 483.253 154.189 484.08C154.629 484.907 154.849 485.807 154.849 486.78C154.849 487.74 154.629 488.633 154.189 489.46C153.749 490.287 153.115 490.953 152.289 491.46C151.475 491.953 150.502 492.2 149.369 492.2ZM146.629 486.78C146.629 487.393 146.749 487.94 146.989 488.42C147.229 488.887 147.555 489.253 147.969 489.52C148.382 489.787 148.849 489.92 149.369 489.92C149.875 489.92 150.335 489.787 150.749 489.52C151.162 489.24 151.489 488.867 151.729 488.4C151.982 487.92 152.109 487.373 152.109 486.76C152.109 486.16 151.982 485.627 151.729 485.16C151.489 484.68 151.162 484.307 150.749 484.04C150.335 483.76 149.875 483.62 149.369 483.62C148.849 483.62 148.382 483.76 147.969 484.04C147.555 484.307 147.229 484.68 146.989 485.16C146.749 485.627 146.629 486.167 146.629 486.78Z" fill="#A5A2A2"/>
<path d="M65.5 483.5C66.5816 483.5 67.6389 483.179 68.5383 482.578C69.4376 481.977 70.1386 481.123 70.5525 480.124C70.9664 479.125 71.0747 478.025 70.8637 476.964C70.6527 475.904 70.1318 474.929 69.367 474.164C68.6022 473.399 67.6277 472.879 66.5669 472.668C65.5061 472.457 64.4065 472.565 63.4072 472.979C62.4079 473.393 61.5538 474.094 60.9529 474.993C60.352 475.892 60.0312 476.95 60.0312 478.031C60.0312 479.482 60.6074 480.873 61.633 481.898C62.6586 482.924 64.0496 483.5 65.5 483.5ZM65.5 474.125C66.2726 474.125 67.0278 474.354 67.6702 474.783C68.3126 475.213 68.8133 475.823 69.1089 476.536C69.4046 477.25 69.4819 478.036 69.3312 478.793C69.1805 479.551 68.8084 480.247 68.2621 480.793C67.7158 481.34 67.0198 481.712 66.2621 481.862C65.5043 482.013 64.7189 481.936 64.0051 481.64C63.2914 481.345 62.6813 480.844 62.2521 480.201C61.8228 479.559 61.5938 478.804 61.5938 478.031C61.5938 476.995 62.0053 476.002 62.7379 475.269C63.4704 474.537 64.464 474.125 65.5 474.125Z" fill="#A5A2A2"/>
<path d="M66.2812 485.062H64.7188C62.4395 485.062 60.2537 485.968 58.6421 487.58C57.0304 489.191 56.125 491.377 56.125 493.656C56.125 493.863 56.2073 494.062 56.3538 494.209C56.5003 494.355 56.699 494.437 56.9062 494.437H74.0938C74.301 494.437 74.4997 494.355 74.6462 494.209C74.7927 494.062 74.875 493.863 74.875 493.656C74.875 491.377 73.9696 489.191 72.358 487.58C70.7463 485.968 68.5605 485.062 66.2812 485.062ZM57.7344 492.875C57.9265 491.157 58.7449 489.57 60.0333 488.417C61.3218 487.264 62.9898 486.626 64.7188 486.625H66.2812C68.0102 486.626 69.6782 487.264 70.9667 488.417C72.2551 489.57 73.0735 491.157 73.2656 492.875H57.7344Z" fill="#A5A2A2"/>
<path fill-rule="evenodd" clip-rule="evenodd" d="M184.498 389C174.835 389 167 397.033 167 406.944C167 414.871 172.014 421.596 178.968 423.969C179.843 424.133 180.162 423.579 180.162 423.103C180.162 422.678 180.148 421.549 180.139 420.052C175.271 421.137 174.244 417.647 174.244 417.647C173.448 415.575 172.301 415.023 172.301 415.023C170.712 413.909 172.421 413.932 172.421 413.932C174.177 414.059 175.101 415.781 175.101 415.781C176.663 418.523 179.198 417.73 180.194 417.272C180.354 416.112 180.805 415.322 181.306 414.873C177.42 414.421 173.334 412.88 173.334 406.005C173.334 404.047 174.016 402.445 175.136 401.19C174.956 400.736 174.355 398.912 175.307 396.442C175.307 396.442 176.776 395.959 180.119 398.281C181.515 397.883 183.013 397.684 184.5 397.677C185.987 397.684 187.484 397.883 188.882 398.281C192.223 395.959 193.69 396.442 193.69 396.442C194.644 398.912 194.044 400.736 193.864 401.19C194.985 402.445 195.663 404.047 195.663 406.005C195.663 412.898 191.571 414.415 187.672 414.859C188.301 415.413 188.86 416.507 188.86 418.182C188.86 420.58 188.839 422.516 188.839 423.103C188.839 423.584 189.154 424.142 190.042 423.967C196.991 421.589 202 414.869 202 406.944C202 397.033 194.164 389 184.498 389Z" fill="white"/>
<path d="M141.804 437.548V439H135.888V430.48H141.696V431.932H137.544V433.984H141.132V435.328H137.544V437.548H141.804ZM148.748 439H147.14V435.472C147.14 434.968 147.052 434.6 146.876 434.368C146.7 434.136 146.456 434.02 146.144 434.02C145.928 434.02 145.708 434.076 145.484 434.188C145.268 434.3 145.072 434.456 144.896 434.656C144.72 434.848 144.592 435.072 144.512 435.328V439H142.904V432.712H144.356V433.876C144.588 433.484 144.924 433.176 145.364 432.952C145.804 432.72 146.3 432.604 146.852 432.604C147.244 432.604 147.564 432.676 147.812 432.82C148.06 432.956 148.252 433.144 148.388 433.384C148.524 433.616 148.616 433.88 148.664 434.176C148.72 434.472 148.748 434.772 148.748 435.076V439ZM153.879 438.676C153.663 438.772 153.395 438.868 153.075 438.964C152.763 439.06 152.439 439.108 152.103 439.108C151.807 439.108 151.535 439.056 151.287 438.952C151.039 438.848 150.839 438.684 150.687 438.46C150.543 438.228 150.471 437.928 150.471 437.56V433.948H149.643V432.712H150.471V430.672H152.079V432.712H153.399V433.948H152.079V437.02C152.079 437.236 152.135 437.392 152.247 437.488C152.367 437.584 152.511 437.632 152.679 437.632C152.847 437.632 153.011 437.604 153.171 437.548C153.331 437.492 153.459 437.444 153.555 437.404L153.879 438.676ZM158.46 434.104C157.972 434.104 157.536 434.2 157.152 434.392C156.768 434.576 156.492 434.844 156.324 435.196V439H154.716V432.712H156.192V434.056C156.408 433.624 156.688 433.284 157.032 433.036C157.384 432.788 157.752 432.652 158.136 432.628C158.304 432.628 158.412 432.632 158.46 432.64V434.104ZM158.89 437.14C158.89 436.732 159.002 436.376 159.226 436.072C159.458 435.76 159.778 435.52 160.186 435.352C160.594 435.184 161.062 435.1 161.59 435.1C161.854 435.1 162.122 435.124 162.394 435.172C162.666 435.212 162.902 435.272 163.102 435.352V435.016C163.102 434.616 162.982 434.308 162.742 434.092C162.51 433.876 162.162 433.768 161.698 433.768C161.354 433.768 161.026 433.828 160.714 433.948C160.402 434.068 160.074 434.244 159.73 434.476L159.214 433.42C159.63 433.148 160.054 432.944 160.486 432.808C160.926 432.672 161.386 432.604 161.866 432.604C162.762 432.604 163.458 432.828 163.954 433.276C164.458 433.724 164.71 434.364 164.71 435.196V437.2C164.71 437.376 164.738 437.5 164.794 437.572C164.85 437.636 164.95 437.676 165.094 437.692V439C164.95 439.032 164.818 439.052 164.698 439.06C164.586 439.076 164.49 439.084 164.41 439.084C164.09 439.084 163.846 439.012 163.678 438.868C163.51 438.724 163.41 438.548 163.378 438.34L163.342 438.016C163.062 438.376 162.718 438.652 162.31 438.844C161.91 439.028 161.498 439.12 161.074 439.12C160.65 439.12 160.274 439.036 159.946 438.868C159.618 438.692 159.358 438.456 159.166 438.16C158.982 437.856 158.89 437.516 158.89 437.14ZM162.802 437.464C163.002 437.272 163.102 437.088 163.102 436.912V436.276C162.686 436.108 162.266 436.024 161.842 436.024C161.418 436.024 161.074 436.116 160.81 436.3C160.546 436.476 160.414 436.712 160.414 437.008C160.414 437.248 160.51 437.464 160.702 437.656C160.894 437.848 161.17 437.944 161.53 437.944C161.77 437.944 162.002 437.9 162.226 437.812C162.458 437.724 162.65 437.608 162.802 437.464ZM169.956 434.104C169.468 434.104 169.032 434.2 168.648 434.392C168.264 434.576 167.988 434.844 167.82 435.196V439H166.212V432.712H167.688V434.056C167.904 433.624 168.184 433.284 168.528 433.036C168.88 432.788 169.248 432.652 169.632 432.628C169.8 432.628 169.908 432.632 169.956 432.64V434.104ZM176.394 439.12C175.714 439.12 175.126 438.968 174.63 438.664C174.134 438.36 173.75 437.96 173.478 437.464C173.206 436.968 173.07 436.432 173.07 435.856C173.07 435.272 173.202 434.732 173.466 434.236C173.738 433.74 174.122 433.344 174.618 433.048C175.114 432.752 175.702 432.604 176.382 432.604C177.07 432.604 177.654 432.752 178.134 433.048C178.622 433.344 178.986 433.732 179.226 434.212L177.654 434.692C177.374 434.212 176.946 433.972 176.37 433.972C176.058 433.972 175.778 434.052 175.53 434.212C175.282 434.364 175.086 434.584 174.942 434.872C174.798 435.152 174.726 435.48 174.726 435.856C174.726 436.224 174.798 436.552 174.942 436.84C175.094 437.12 175.294 437.344 175.542 437.512C175.79 437.672 176.066 437.752 176.37 437.752C176.658 437.752 176.922 437.684 177.162 437.548C177.41 437.404 177.582 437.224 177.678 437.008L179.25 437.488C179.034 437.96 178.674 438.352 178.17 438.664C177.674 438.968 177.082 439.12 176.394 439.12ZM183.085 439.12C182.397 439.12 181.805 438.972 181.309 438.676C180.821 438.372 180.445 437.972 180.181 437.476C179.917 436.98 179.785 436.444 179.785 435.868C179.785 435.284 179.917 434.744 180.181 434.248C180.453 433.752 180.833 433.356 181.321 433.06C181.817 432.756 182.405 432.604 183.085 432.604C183.765 432.604 184.349 432.756 184.837 433.06C185.333 433.356 185.713 433.752 185.977 434.248C186.241 434.744 186.373 435.284 186.373 435.868C186.373 436.444 186.241 436.98 185.977 437.476C185.713 437.972 185.333 438.372 184.837 438.676C184.349 438.972 183.765 439.12 183.085 439.12ZM181.441 435.868C181.441 436.236 181.513 436.564 181.657 436.852C181.801 437.132 181.997 437.352 182.245 437.512C182.493 437.672 182.773 437.752 183.085 437.752C183.389 437.752 183.665 437.672 183.913 437.512C184.161 437.344 184.357 437.12 184.501 436.84C184.653 436.552 184.729 436.224 184.729 435.856C184.729 435.496 184.653 435.176 184.501 434.896C184.357 434.608 184.161 434.384 183.913 434.224C183.665 434.056 183.389 433.972 183.085 433.972C182.773 433.972 182.493 434.056 182.245 434.224C181.997 434.384 181.801 434.608 181.657 434.896C181.513 435.176 181.441 435.5 181.441 435.868ZM197.227 439H195.619V435.472C195.619 434.976 195.531 434.612 195.355 434.38C195.187 434.14 194.951 434.02 194.647 434.02C194.327 434.02 194.027 434.144 193.747 434.392C193.467 434.632 193.267 434.948 193.147 435.34V439H191.539V435.472C191.539 434.968 191.451 434.6 191.275 434.368C191.107 434.136 190.871 434.02 190.567 434.02C190.255 434.02 189.955 434.14 189.667 434.38C189.387 434.62 189.187 434.936 189.067 435.328V439H187.459V432.712H188.911V433.876C189.143 433.468 189.459 433.156 189.859 432.94C190.267 432.716 190.731 432.604 191.251 432.604C191.771 432.604 192.175 432.732 192.463 432.988C192.759 433.244 192.947 433.56 193.027 433.936C193.275 433.504 193.599 433.176 193.999 432.952C194.399 432.72 194.847 432.604 195.343 432.604C195.735 432.604 196.051 432.676 196.291 432.82C196.539 432.956 196.731 433.144 196.867 433.384C197.003 433.616 197.095 433.88 197.143 434.176C197.199 434.472 197.227 434.772 197.227 435.076V439ZM205.205 439.06C204.645 439.06 204.121 438.948 203.633 438.724C203.145 438.5 202.713 438.192 202.337 437.8C201.969 437.4 201.681 436.936 201.473 436.408C201.265 435.88 201.161 435.308 201.161 434.692C201.161 434.108 201.265 433.56 201.473 433.048C201.681 432.528 201.973 432.072 202.349 431.68C202.725 431.288 203.165 430.98 203.669 430.756C204.173 430.532 204.721 430.42 205.313 430.42C206.105 430.42 206.789 430.592 207.365 430.936C207.941 431.272 208.373 431.72 208.661 432.28L207.425 433.192C207.209 432.776 206.905 432.456 206.513 432.232C206.129 432 205.709 431.884 205.253 431.884C204.773 431.884 204.349 432.016 203.981 432.28C203.621 432.544 203.337 432.892 203.129 433.324C202.929 433.756 202.829 434.228 202.829 434.74C202.829 435.276 202.937 435.76 203.153 436.192C203.369 436.624 203.665 436.968 204.041 437.224C204.425 437.472 204.861 437.596 205.349 437.596C206.173 437.596 206.917 437.208 207.581 436.432V435.832H205.865V434.62H208.949V439H207.581V438.04C206.893 438.72 206.101 439.06 205.205 439.06ZM210.205 431.836V430.24H211.813V431.836H210.205ZM210.205 439V432.712H211.813V439H210.205ZM217.031 438.676C216.815 438.772 216.547 438.868 216.227 438.964C215.915 439.06 215.591 439.108 215.255 439.108C214.959 439.108 214.687 439.056 214.439 438.952C214.191 438.848 213.991 438.684 213.839 438.46C213.695 438.228 213.623 437.928 213.623 437.56V433.948H212.795V432.712H213.623V430.672H215.231V432.712H216.551V433.948H215.231V437.02C215.231 437.236 215.287 437.392 215.399 437.488C215.519 437.584 215.663 437.632 215.831 437.632C215.999 437.632 216.163 437.604 216.323 437.548C216.483 437.492 216.611 437.444 216.707 437.404L217.031 438.676ZM223.713 439H222.105V435.472C222.105 434.984 222.009 434.62 221.817 434.38C221.633 434.14 221.377 434.02 221.049 434.02C220.849 434.02 220.641 434.076 220.425 434.188C220.217 434.3 220.025 434.456 219.849 434.656C219.681 434.848 219.557 435.072 219.477 435.328V439H217.869V430.24H219.477V433.876C219.709 433.476 220.025 433.164 220.425 432.94C220.825 432.716 221.261 432.604 221.733 432.604C222.269 432.604 222.681 432.724 222.969 432.964C223.257 433.204 223.453 433.512 223.557 433.888C223.661 434.264 223.713 434.66 223.713 435.076V439ZM225.051 436.648V432.712H226.659V436.3C226.659 437.268 227.007 437.752 227.703 437.752C228.015 437.752 228.315 437.66 228.603 437.476C228.899 437.284 229.139 436.996 229.323 436.612V432.712H230.931V437.2C230.931 437.376 230.959 437.5 231.015 437.572C231.071 437.636 231.171 437.676 231.315 437.692V439C231.155 439.032 231.019 439.052 230.907 439.06C230.803 439.068 230.707 439.072 230.619 439.072C230.331 439.072 230.095 439.008 229.911 438.88C229.735 438.744 229.631 438.56 229.599 438.328L229.563 437.824C229.283 438.256 228.923 438.58 228.483 438.796C228.043 439.012 227.559 439.12 227.031 439.12C226.383 439.12 225.891 438.912 225.555 438.496C225.219 438.072 225.051 437.456 225.051 436.648ZM236.105 439.12C235.625 439.12 235.197 439.012 234.821 438.796C234.445 438.58 234.149 438.284 233.933 437.908V439H232.529V430.24H234.137V433.816C234.361 433.44 234.653 433.144 235.013 432.928C235.381 432.712 235.809 432.604 236.297 432.604C236.841 432.604 237.317 432.756 237.725 433.06C238.141 433.356 238.465 433.752 238.697 434.248C238.929 434.744 239.045 435.288 239.045 435.88C239.045 436.488 238.917 437.036 238.661 437.524C238.405 438.012 238.053 438.4 237.605 438.688C237.165 438.976 236.665 439.12 236.105 439.12ZM235.661 437.752C236.005 437.752 236.305 437.668 236.561 437.5C236.825 437.332 237.029 437.108 237.173 436.828C237.325 436.54 237.401 436.228 237.401 435.892C237.401 435.548 237.329 435.232 237.185 434.944C237.049 434.648 236.857 434.412 236.609 434.236C236.361 434.06 236.077 433.972 235.757 433.972C235.405 433.972 235.081 434.092 234.785 434.332C234.497 434.564 234.281 434.852 234.137 435.196V436.696C234.241 437.008 234.445 437.264 234.749 437.464C235.053 437.656 235.357 437.752 235.661 437.752Z" fill="white"/>
<path d="M109.505 754.185V756H102.11V745.35H109.37V747.165H104.18V749.73H108.665V751.41H104.18V754.185H109.505ZM118.185 756H116.175V751.59C116.175 750.96 116.065 750.5 115.845 750.21C115.625 749.92 115.32 749.775 114.93 749.775C114.66 749.775 114.385 749.845 114.105 749.985C113.835 750.125 113.59 750.32 113.37 750.57C113.15 750.81 112.99 751.09 112.89 751.41V756H110.88V748.14H112.695V749.595C112.985 749.105 113.405 748.72 113.955 748.44C114.505 748.15 115.125 748.005 115.815 748.005C116.305 748.005 116.705 748.095 117.015 748.275C117.325 748.445 117.565 748.68 117.735 748.98C117.905 749.27 118.02 749.6 118.08 749.97C118.15 750.34 118.185 750.715 118.185 751.095V756ZM124.599 755.595C124.329 755.715 123.994 755.835 123.594 755.955C123.204 756.075 122.799 756.135 122.379 756.135C122.009 756.135 121.669 756.07 121.359 755.94C121.049 755.81 120.799 755.605 120.609 755.325C120.429 755.035 120.339 754.66 120.339 754.2V749.685H119.304V748.14H120.339V745.59H122.349V748.14H123.999V749.685H122.349V753.525C122.349 753.795 122.419 753.99 122.559 754.11C122.709 754.23 122.889 754.29 123.099 754.29C123.309 754.29 123.514 754.255 123.714 754.185C123.914 754.115 124.074 754.055 124.194 754.005L124.599 755.595ZM130.325 749.88C129.715 749.88 129.17 750 128.69 750.24C128.21 750.47 127.865 750.805 127.655 751.245V756H125.645V748.14H127.49V749.82C127.76 749.28 128.11 748.855 128.54 748.545C128.98 748.235 129.44 748.065 129.92 748.035C130.13 748.035 130.265 748.04 130.325 748.05V749.88ZM130.862 753.675C130.862 753.165 131.002 752.72 131.282 752.34C131.572 751.95 131.972 751.65 132.482 751.44C132.992 751.23 133.577 751.125 134.237 751.125C134.567 751.125 134.902 751.155 135.242 751.215C135.582 751.265 135.877 751.34 136.127 751.44V751.02C136.127 750.52 135.977 750.135 135.677 749.865C135.387 749.595 134.952 749.46 134.372 749.46C133.942 749.46 133.532 749.535 133.142 749.685C132.752 749.835 132.342 750.055 131.912 750.345L131.267 749.025C131.787 748.685 132.317 748.43 132.857 748.26C133.407 748.09 133.982 748.005 134.582 748.005C135.702 748.005 136.572 748.285 137.192 748.845C137.822 749.405 138.137 750.205 138.137 751.245V753.75C138.137 753.97 138.172 754.125 138.242 754.215C138.312 754.295 138.437 754.345 138.617 754.365V756C138.437 756.04 138.272 756.065 138.122 756.075C137.982 756.095 137.862 756.105 137.762 756.105C137.362 756.105 137.057 756.015 136.847 755.835C136.637 755.655 136.512 755.435 136.472 755.175L136.427 754.77C136.077 755.22 135.647 755.565 135.137 755.805C134.637 756.035 134.122 756.15 133.592 756.15C133.062 756.15 132.592 756.045 132.182 755.835C131.772 755.615 131.447 755.32 131.207 754.95C130.977 754.57 130.862 754.145 130.862 753.675ZM135.752 754.08C136.002 753.84 136.127 753.61 136.127 753.39V752.595C135.607 752.385 135.082 752.28 134.552 752.28C134.022 752.28 133.592 752.395 133.262 752.625C132.932 752.845 132.767 753.14 132.767 753.51C132.767 753.81 132.887 754.08 133.127 754.32C133.367 754.56 133.712 754.68 134.162 754.68C134.462 754.68 134.752 754.625 135.032 754.515C135.322 754.405 135.562 754.26 135.752 754.08ZM144.696 749.88C144.086 749.88 143.541 750 143.061 750.24C142.581 750.47 142.236 750.805 142.026 751.245V756H140.016V748.14H141.861V749.82C142.131 749.28 142.481 748.855 142.911 748.545C143.351 748.235 143.811 748.065 144.291 748.035C144.501 748.035 144.636 748.04 144.696 748.05V749.88ZM152.743 756.15C151.893 756.15 151.158 755.96 150.538 755.58C149.918 755.2 149.438 754.7 149.098 754.08C148.758 753.46 148.588 752.79 148.588 752.07C148.588 751.34 148.753 750.665 149.083 750.045C149.423 749.425 149.903 748.93 150.523 748.56C151.143 748.19 151.878 748.005 152.728 748.005C153.588 748.005 154.318 748.19 154.918 748.56C155.528 748.93 155.983 749.415 156.283 750.015L154.318 750.615C153.968 750.015 153.433 749.715 152.713 749.715C152.323 749.715 151.973 749.815 151.663 750.015C151.353 750.205 151.108 750.48 150.928 750.84C150.748 751.19 150.658 751.6 150.658 752.07C150.658 752.53 150.748 752.94 150.928 753.3C151.118 753.65 151.368 753.93 151.678 754.14C151.988 754.34 152.333 754.44 152.713 754.44C153.073 754.44 153.403 754.355 153.703 754.185C154.013 754.005 154.228 753.78 154.348 753.51L156.313 754.11C156.043 754.7 155.593 755.19 154.963 755.58C154.343 755.96 153.603 756.15 152.743 756.15ZM161.107 756.15C160.247 756.15 159.507 755.965 158.887 755.595C158.277 755.215 157.807 754.715 157.477 754.095C157.147 753.475 156.982 752.805 156.982 752.085C156.982 751.355 157.147 750.68 157.477 750.06C157.817 749.44 158.292 748.945 158.902 748.575C159.522 748.195 160.257 748.005 161.107 748.005C161.957 748.005 162.687 748.195 163.297 748.575C163.917 748.945 164.392 749.44 164.722 750.06C165.052 750.68 165.217 751.355 165.217 752.085C165.217 752.805 165.052 753.475 164.722 754.095C164.392 754.715 163.917 755.215 163.297 755.595C162.687 755.965 161.957 756.15 161.107 756.15ZM159.052 752.085C159.052 752.545 159.142 752.955 159.322 753.315C159.502 753.665 159.747 753.94 160.057 754.14C160.367 754.34 160.717 754.44 161.107 754.44C161.487 754.44 161.832 754.34 162.142 754.14C162.452 753.93 162.697 753.65 162.877 753.3C163.067 752.94 163.162 752.53 163.162 752.07C163.162 751.62 163.067 751.22 162.877 750.87C162.697 750.51 162.452 750.23 162.142 750.03C161.832 749.82 161.487 749.715 161.107 749.715C160.717 749.715 160.367 749.82 160.057 750.03C159.747 750.23 159.502 750.51 159.322 750.87C159.142 751.22 159.052 751.625 159.052 752.085ZM178.783 756H176.773V751.59C176.773 750.97 176.663 750.515 176.443 750.225C176.233 749.925 175.938 749.775 175.558 749.775C175.158 749.775 174.783 749.93 174.433 750.24C174.083 750.54 173.833 750.935 173.683 751.425V756H171.673V751.59C171.673 750.96 171.563 750.5 171.343 750.21C171.133 749.92 170.838 749.775 170.458 749.775C170.068 749.775 169.693 749.925 169.333 750.225C168.983 750.525 168.733 750.92 168.583 751.41V756H166.573V748.14H168.388V749.595C168.678 749.085 169.073 748.695 169.573 748.425C170.083 748.145 170.663 748.005 171.313 748.005C171.963 748.005 172.468 748.165 172.828 748.485C173.198 748.805 173.433 749.2 173.533 749.67C173.843 749.13 174.248 748.72 174.748 748.44C175.248 748.15 175.808 748.005 176.428 748.005C176.918 748.005 177.313 748.095 177.613 748.275C177.923 748.445 178.163 748.68 178.333 748.98C178.503 749.27 178.618 749.6 178.678 749.97C178.748 750.34 178.783 750.715 178.783 751.095V756ZM184.163 756.15C183.303 756.15 182.563 755.965 181.943 755.595C181.333 755.215 180.863 754.715 180.533 754.095C180.203 753.475 180.038 752.805 180.038 752.085C180.038 751.355 180.203 750.68 180.533 750.06C180.873 749.44 181.348 748.945 181.958 748.575C182.578 748.195 183.313 748.005 184.163 748.005C185.013 748.005 185.743 748.195 186.353 748.575C186.973 748.945 187.448 749.44 187.778 750.06C188.108 750.68 188.273 751.355 188.273 752.085C188.273 752.805 188.108 753.475 187.778 754.095C187.448 754.715 186.973 755.215 186.353 755.595C185.743 755.965 185.013 756.15 184.163 756.15ZM182.108 752.085C182.108 752.545 182.198 752.955 182.378 753.315C182.558 753.665 182.803 753.94 183.113 754.14C183.423 754.34 183.773 754.44 184.163 754.44C184.543 754.44 184.888 754.34 185.198 754.14C185.508 753.93 185.753 753.65 185.933 753.3C186.123 752.94 186.218 752.53 186.218 752.07C186.218 751.62 186.123 751.22 185.933 750.87C185.753 750.51 185.508 750.23 185.198 750.03C184.888 749.82 184.543 749.715 184.163 749.715C183.773 749.715 183.423 749.82 183.113 750.03C182.803 750.23 182.558 750.51 182.378 750.87C182.198 751.22 182.108 751.625 182.108 752.085ZM196.893 756.15C196.043 756.15 195.308 755.96 194.688 755.58C194.068 755.2 193.588 754.7 193.248 754.08C192.908 753.46 192.738 752.79 192.738 752.07C192.738 751.34 192.903 750.665 193.233 750.045C193.573 749.425 194.053 748.93 194.673 748.56C195.293 748.19 196.028 748.005 196.878 748.005C197.738 748.005 198.468 748.19 199.068 748.56C199.678 748.93 200.133 749.415 200.433 750.015L198.468 750.615C198.118 750.015 197.583 749.715 196.863 749.715C196.473 749.715 196.123 749.815 195.813 750.015C195.503 750.205 195.258 750.48 195.078 750.84C194.898 751.19 194.808 751.6 194.808 752.07C194.808 752.53 194.898 752.94 195.078 753.3C195.268 753.65 195.518 753.93 195.828 754.14C196.138 754.34 196.483 754.44 196.863 754.44C197.223 754.44 197.553 754.355 197.853 754.185C198.163 754.005 198.378 753.78 198.498 753.51L200.463 754.11C200.193 754.7 199.743 755.19 199.113 755.58C198.493 755.96 197.753 756.15 196.893 756.15ZM205.257 756.15C204.397 756.15 203.657 755.965 203.037 755.595C202.427 755.215 201.957 754.715 201.627 754.095C201.297 753.475 201.132 752.805 201.132 752.085C201.132 751.355 201.297 750.68 201.627 750.06C201.967 749.44 202.442 748.945 203.052 748.575C203.672 748.195 204.407 748.005 205.257 748.005C206.107 748.005 206.837 748.195 207.447 748.575C208.067 748.945 208.542 749.44 208.872 750.06C209.202 750.68 209.367 751.355 209.367 752.085C209.367 752.805 209.202 753.475 208.872 754.095C208.542 754.715 208.067 755.215 207.447 755.595C206.837 755.965 206.107 756.15 205.257 756.15ZM203.202 752.085C203.202 752.545 203.292 752.955 203.472 753.315C203.652 753.665 203.897 753.94 204.207 754.14C204.517 754.34 204.867 754.44 205.257 754.44C205.637 754.44 205.982 754.34 206.292 754.14C206.602 753.93 206.847 753.65 207.027 753.3C207.217 752.94 207.312 752.53 207.312 752.07C207.312 751.62 207.217 751.22 207.027 750.87C206.847 750.51 206.602 750.23 206.292 750.03C205.982 749.82 205.637 749.715 205.257 749.715C204.867 749.715 204.517 749.82 204.207 750.03C203.897 750.23 203.652 750.51 203.472 750.87C203.292 751.22 203.202 751.625 203.202 752.085ZM218.029 756H216.019V751.59C216.019 750.96 215.909 750.5 215.689 750.21C215.469 749.92 215.164 749.775 214.774 749.775C214.504 749.775 214.229 749.845 213.949 749.985C213.679 750.125 213.434 750.32 213.214 750.57C212.994 750.81 212.834 751.09 212.734 751.41V756H210.724V748.14H212.539V749.595C212.829 749.105 213.249 748.72 213.799 748.44C214.349 748.15 214.969 748.005 215.659 748.005C216.149 748.005 216.549 748.095 216.859 748.275C217.169 748.445 217.409 748.68 217.579 748.98C217.749 749.27 217.864 749.6 217.924 749.97C217.994 750.34 218.029 750.715 218.029 751.095V756ZM221.759 756L218.864 748.14H220.949L222.929 754.17L224.924 748.14H226.829L223.949 756H221.759ZM227.892 747.045V745.05H229.902V747.045H227.892ZM227.892 756V748.14H229.902V756H227.892ZM231.235 752.07C231.235 751.32 231.385 750.635 231.685 750.015C231.985 749.395 232.4 748.905 232.93 748.545C233.46 748.185 234.065 748.005 234.745 748.005C235.325 748.005 235.845 748.15 236.305 748.44C236.775 748.72 237.14 749.08 237.4 749.52V745.05H239.41V753.75C239.41 753.97 239.445 754.125 239.515 754.215C239.585 754.295 239.705 754.345 239.875 754.365V756C239.515 756.07 239.23 756.105 239.02 756.105C238.66 756.105 238.36 756.015 238.12 755.835C237.89 755.655 237.76 755.42 237.73 755.13L237.7 754.635C237.41 755.125 237.015 755.5 236.515 755.76C236.025 756.02 235.51 756.15 234.97 756.15C234.24 756.15 233.595 755.97 233.035 755.61C232.475 755.24 232.035 754.75 231.715 754.14C231.395 753.52 231.235 752.83 231.235 752.07ZM237.4 753.12V751.245C237.24 750.805 236.965 750.44 236.575 750.15C236.185 749.86 235.785 749.715 235.375 749.715C234.965 749.715 234.605 749.83 234.295 750.06C233.985 750.28 233.745 750.575 233.575 750.945C233.405 751.305 233.32 751.695 233.32 752.115C233.32 752.545 233.415 752.94 233.605 753.3C233.795 753.65 234.05 753.93 234.37 754.14C234.7 754.34 235.075 754.44 235.495 754.44C235.875 754.44 236.25 754.315 236.62 754.065C237 753.815 237.26 753.5 237.4 753.12ZM240.843 753.675C240.843 753.165 240.983 752.72 241.263 752.34C241.553 751.95 241.953 751.65 242.463 751.44C242.973 751.23 243.558 751.125 244.218 751.125C244.548 751.125 244.883 751.155 245.223 751.215C245.563 751.265 245.858 751.34 246.108 751.44V751.02C246.108 750.52 245.958 750.135 245.658 749.865C245.368 749.595 244.933 749.46 244.353 749.46C243.923 749.46 243.513 749.535 243.123 749.685C242.733 749.835 242.323 750.055 241.893 750.345L241.248 749.025C241.768 748.685 242.298 748.43 242.838 748.26C243.388 748.09 243.963 748.005 244.563 748.005C245.683 748.005 246.553 748.285 247.173 748.845C247.803 749.405 248.118 750.205 248.118 751.245V753.75C248.118 753.97 248.153 754.125 248.223 754.215C248.293 754.295 248.418 754.345 248.598 754.365V756C248.418 756.04 248.253 756.065 248.103 756.075C247.963 756.095 247.843 756.105 247.743 756.105C247.343 756.105 247.038 756.015 246.828 755.835C246.618 755.655 246.493 755.435 246.453 755.175L246.408 754.77C246.058 755.22 245.628 755.565 245.118 755.805C244.618 756.035 244.103 756.15 243.573 756.15C243.043 756.15 242.573 756.045 242.163 755.835C241.753 755.615 241.428 755.32 241.188 754.95C240.958 754.57 240.843 754.145 240.843 753.675ZM245.733 754.08C245.983 753.84 246.108 753.61 246.108 753.39V752.595C245.588 752.385 245.063 752.28 244.533 752.28C244.003 752.28 243.573 752.395 243.243 752.625C242.913 752.845 242.748 753.14 242.748 753.51C242.748 753.81 242.868 754.08 243.108 754.32C243.348 754.56 243.693 754.68 244.143 754.68C244.443 754.68 244.733 754.625 245.013 754.515C245.303 754.405 245.543 754.26 245.733 754.08ZM249.516 752.07C249.516 751.32 249.666 750.635 249.966 750.015C250.266 749.395 250.681 748.905 251.211 748.545C251.741 748.185 252.346 748.005 253.026 748.005C253.606 748.005 254.126 748.15 254.586 748.44C255.056 748.72 255.421 749.08 255.681 749.52V745.05H257.691V753.75C257.691 753.97 257.726 754.125 257.796 754.215C257.866 754.295 257.986 754.345 258.156 754.365V756C257.796 756.07 257.511 756.105 257.301 756.105C256.941 756.105 256.641 756.015 256.401 755.835C256.171 755.655 256.041 755.42 256.011 755.13L255.981 754.635C255.691 755.125 255.296 755.5 254.796 755.76C254.306 756.02 253.791 756.15 253.251 756.15C252.521 756.15 251.876 755.97 251.316 755.61C250.756 755.24 250.316 754.75 249.996 754.14C249.676 753.52 249.516 752.83 249.516 752.07ZM255.681 753.12V751.245C255.521 750.805 255.246 750.44 254.856 750.15C254.466 749.86 254.066 749.715 253.656 749.715C253.246 749.715 252.886 749.83 252.576 750.06C252.266 750.28 252.026 750.575 251.856 750.945C251.686 751.305 251.601 751.695 251.601 752.115C251.601 752.545 251.696 752.94 251.886 753.3C252.076 753.65 252.331 753.93 252.651 754.14C252.981 754.34 253.356 754.44 253.776 754.44C254.156 754.44 254.531 754.315 254.901 754.065C255.281 753.815 255.541 753.5 255.681 753.12ZM263.294 756.15C262.434 756.15 261.694 755.965 261.074 755.595C260.464 755.215 259.994 754.715 259.664 754.095C259.334 753.475 259.169 752.805 259.169 752.085C259.169 751.355 259.334 750.68 259.664 750.06C260.004 749.44 260.479 748.945 261.089 748.575C261.709 748.195 262.444 748.005 263.294 748.005C264.144 748.005 264.874 748.195 265.484 748.575C266.104 748.945 266.579 749.44 266.909 750.06C267.239 750.68 267.404 751.355 267.404 752.085C267.404 752.805 267.239 753.475 266.909 754.095C266.579 754.715 266.104 755.215 265.484 755.595C264.874 755.965 264.144 756.15 263.294 756.15ZM261.239 752.085C261.239 752.545 261.329 752.955 261.509 753.315C261.689 753.665 261.934 753.94 262.244 754.14C262.554 754.34 262.904 754.44 263.294 754.44C263.674 754.44 264.019 754.34 264.329 754.14C264.639 753.93 264.884 753.65 265.064 753.3C265.254 752.94 265.349 752.53 265.349 752.07C265.349 751.62 265.254 751.22 265.064 750.87C264.884 750.51 264.639 750.23 264.329 750.03C264.019 749.82 263.674 749.715 263.294 749.715C262.904 749.715 262.554 749.82 262.244 750.03C261.934 750.23 261.689 750.51 261.509 750.87C261.329 751.22 261.239 751.625 261.239 752.085Z" fill="white"/>
</g>
<defs>
<filter id="filter0_d_326_2" x="-4" y="198" width="383" height="671" filterUnits="userSpaceOnUse" color-interpolation-filters="sRGB">
<feFlood flood-opacity="0" result="BackgroundImageFix"/>
<feColorMatrix in="SourceAlpha" type="matrix" values="0 0 0 0 0 0 0 0 0 0 0 0 0 0 0 0 0 0 127 0" result="hardAlpha"/>
<feOffset dy="4"/>
<feGaussianBlur stdDeviation="2"/>
<feColorMatrix type="matrix" values="0 0 0 0 0 0 0 0 0 0 0 0 0 0 0 0 0 0 0.25 0"/>
<feBlend mode="normal" in2="BackgroundImageFix" result="effect1_dropShadow_326_2"/>
<feBlend mode="normal" in="SourceGraphic" in2="effect1_dropShadow_326_2" result="shape"/>
</filter>
<filter id="filter1_d_326_2" x="91" y="622" width="198" height="69" filterUnits="userSpaceOnUse" color-interpolation-filters="sRGB">
<feFlood flood-opacity="0" result="BackgroundImageFix"/>
<feColorMatrix in="SourceAlpha" type="matrix" values="0 0 0 0 0 0 0 0 0 0 0 0 0 0 0 0 0 0 127 0" result="hardAlpha"/>
<feOffset dy="4"/>
<feGaussianBlur stdDeviation="2"/>
<feColorMatrix type="matrix" values="0 0 0 0 0 0 0 0 0 0 0 0 0 0 0 0 0 0 0.25 0"/>
<feBlend mode="normal" in2="BackgroundImageFix" result="effect1_dropShadow_326_2"/>
<feBlend mode="normal" in="SourceGraphic" in2="effect1_dropShadow_326_2" result="shape"/>
</filter>
<filter id="filter2_d_326_2" x="88" y="81" width="197" height="261.175" filterUnits="userSpaceOnUse" color-interpolation-filters="sRGB">
<feFlood flood-opacity="0" result="BackgroundImageFix"/>
<feColorMatrix in="SourceAlpha" type="matrix" values="0 0 0 0 0 0 0 0 0 0 0 0 0 0 0 0 0 0 127 0" result="hardAlpha"/>
<feOffset dy="4"/>
<feGaussianBlur stdDeviation="2"/>
<feColorMatrix type="matrix" values="0 0 0 0 0 0 0 0 0 0 0 0 0 0 0 0 0 0 0.25 0"/>
<feBlend mode="normal" in2="BackgroundImageFix" result="effect1_dropShadow_326_2"/>
<feBlend mode="normal" in="SourceGraphic" in2="effect1_dropShadow_326_2" result="shape"/>
</filter>
<radialGradient id="paint0_radial_326_2" cx="0" cy="0" r="1" gradientUnits="userSpaceOnUse" gradientTransform="translate(186.5 140.591) scale(55.4651 55.4651)">
<stop offset="0.2584" stop-color="#F0F5FC"/>
<stop offset="0.9927" stop-color="white"/>
</radialGradient>
<clipPath id="clip0_326_2">
<rect width="375" height="812" rx="30" fill="white"/>
</clipPath>
</defs>
</svg>
